<svg xmlns="http://www.w3.org/2000/svg" width="25" height="21.979" viewBox="0 0 25 21.979">
  <g id="heart" transform="translate(0 -28.501)">
    <path id="Tracé_4" data-name="Tracé 4" d="M22.981,30.541a6.922,6.922,0,0,0-9.789.005l-.684.684-.694-.694a6.916,6.916,0,0,0-9.789-.011,6.916,6.916,0,0,0,.011,9.789l9.953,9.953A.71.71,0,0,0,13,50.273l9.975-9.937a6.935,6.935,0,0,0,.011-9.794Zm-1.018,8.782-9.471,9.434-9.45-9.45A5.487,5.487,0,1,1,10.8,31.548l1.2,1.2a.713.713,0,0,0,1.012,0L14.2,31.559a5.49,5.49,0,0,1,7.764,7.764Z" transform="translate(0 0)" fill="#707070"/>
  </g>
</svg>
