<svg xmlns="http://www.w3.org/2000/svg" width="24.899" height="22.196" viewBox="0 0 24.899 22.196">
  <g id="home" transform="translate(0.001 -27.797)">
    <g id="Groupe_22" data-name="Groupe 22" transform="translate(-0.001 27.798)">
      <g id="Groupe_21" data-name="Groupe 21" transform="translate(0 0)">
        <path id="Tracé_1" data-name="Tracé 1" d="M24.634,36.94l-11.8-9.013a.625.625,0,0,0-.764,0L.264,36.94a.694.694,0,0,0-.14.943.63.63,0,0,0,.9.146l11.42-8.721,11.42,8.721a.626.626,0,0,0,.382.13.638.638,0,0,0,.522-.276A.694.694,0,0,0,24.634,36.94Z" transform="translate(0.001 -27.798)" fill="#707070"/>
      </g>
    </g>
    <g id="Groupe_24" data-name="Groupe 24" transform="translate(2.863 37.229)">
      <g id="Groupe_23" data-name="Groupe 23">
        <path id="Tracé_2" data-name="Tracé 2" d="M74.986,232.543a.658.658,0,0,0-.639.675v10.74H69.234V238.1a3.2,3.2,0,1,0-6.391,0v5.862H57.73v-10.74a.64.64,0,1,0-1.278,0v11.415a.658.658,0,0,0,.639.675h6.391a.654.654,0,0,0,.637-.622c0-.016,0-.033,0-.053V238.1a1.92,1.92,0,1,1,3.835,0v6.537c0,.019,0,.036,0,.052a.654.654,0,0,0,.637.623h6.391a.658.658,0,0,0,.639-.675V233.218A.658.658,0,0,0,74.986,232.543Z" transform="translate(-56.452 -232.543)" fill="#707070"/>
      </g>
    </g>
  </g>
</svg>
