<svg xmlns="http://www.w3.org/2000/svg" width="19.692" height="15" viewBox="0 0 19.692 15">
  <path id="Tracé_5" data-name="Tracé 5" d="M17.962,61H1.731A1.734,1.734,0,0,0,0,62.731V74.269A1.734,1.734,0,0,0,1.731,76H17.962a1.734,1.734,0,0,0,1.731-1.731V62.731A1.734,1.734,0,0,0,17.962,61Zm-.239,1.154-7.84,7.84-7.908-7.84ZM1.154,74.03V62.964l5.557,5.509Zm.816.816,5.56-5.56,1.948,1.932a.577.577,0,0,0,.814,0l1.9-1.9,5.53,5.53Zm16.569-.816-5.53-5.53,5.53-5.53Z" transform="translate(0 -61)" fill="#707070"/>
</svg>
