<svg xmlns="http://www.w3.org/2000/svg" width="13.518" height="17.084" viewBox="0 0 13.518 17.084">
  <path id="bell" d="M66.673,13.6a2.654,2.654,0,0,1-.807-1.1,12.71,12.71,0,0,1-.841-5.022c0-.006,0-.013,0-.019a4.847,4.847,0,0,0-2.853-4.4V1.9a1.9,1.9,0,0,0-1.9-1.9h-.157a1.9,1.9,0,0,0-1.9,1.9V3.06a4.847,4.847,0,0,0-2.854,4.416A12.71,12.71,0,0,1,54.52,12.5a2.654,2.654,0,0,1-.807,1.1.487.487,0,0,0-.267.553.509.509,0,0,0,.5.391h3.669a2.577,2.577,0,0,0,5.154,0h3.669a.509.509,0,0,0,.5-.391A.487.487,0,0,0,66.673,13.6ZM59.216,1.9a.9.9,0,0,1,.9-.9h.157a.9.9,0,0,1,.9.9v.831a4.848,4.848,0,0,0-1.955,0V1.9Zm.978,14.178a1.579,1.579,0,0,1-1.576-1.541h3.151A1.579,1.579,0,0,1,60.193,16.082Zm2.015-2.544h-7.12a5.247,5.247,0,0,0,.262-.46,12.672,12.672,0,0,0,1.011-5.6,3.831,3.831,0,1,1,7.663,0c0,.006,0,.012,0,.018a12.647,12.647,0,0,0,1.011,5.582,5.249,5.249,0,0,0,.262.46Z" transform="translate(-53.434 0)" fill="#707070"/>
</svg>
