<svg xmlns="http://www.w3.org/2000/svg" width="18.126" height="17.085" viewBox="0 0 18.126 17.085">
  <path id="like_1_" data-name="like (1)" d="M17.086,6.571c-.25-2.75-2.2-4.745-4.632-4.745A4.6,4.6,0,0,0,8.51,4.1,4.437,4.437,0,0,0,4.66,1.826C2.225,1.826.278,3.821.029,6.571a4.892,4.892,0,0,0,.145,1.8,7.734,7.734,0,0,0,2.369,3.954l5.962,5.411,6.065-5.41A7.735,7.735,0,0,0,16.94,8.374,4.9,4.9,0,0,0,17.086,6.571Z" transform="translate(0.506 -1.326)" fill="#707070" stroke="#707070" stroke-width="1"/>
</svg>
