<svg id="play-button_2_" data-name="play-button (2)" xmlns="http://www.w3.org/2000/svg" width="30" height="30" viewBox="0 0 30 30">
  <path id="Tracé_9" data-name="Tracé 9" d="M33.485,21.754,22.762,14.089a.47.47,0,0,0-.5-.03.515.515,0,0,0-.259.452V29.842a.514.514,0,0,0,.26.452.465.465,0,0,0,.228.059.473.473,0,0,0,.274-.089L33.485,22.6a.525.525,0,0,0,0-.844Zm-10.51,7.12v-13.4l9.37,6.7Z" transform="translate(-10.815 -7.177)" fill="#fff"/>
  <path id="Tracé_10" data-name="Tracé 10" d="M15,0A15,15,0,1,0,30,15,15.017,15.017,0,0,0,15,0Zm0,29A14,14,0,1,1,29,15,14.016,14.016,0,0,1,15,29Z" fill="#fff"/>
</svg>
