<svg xmlns="http://www.w3.org/2000/svg" width="20" height="20.001" viewBox="0 0 20 20.001">
  <g id="magnifying-glass" transform="translate(-0.001 0)">
    <path id="Tracé_3" data-name="Tracé 3" d="M13.357,2.289a7.827,7.827,0,1,0-1.07,11.955,1.648,1.648,0,0,0,.447.829l4.443,4.443a1.653,1.653,0,1,0,2.338-2.338l-4.443-4.445a1.653,1.653,0,0,0-.829-.446A7.834,7.834,0,0,0,13.357,2.289Zm-1.4,9.666a5.843,5.843,0,1,1,0-8.263A5.849,5.849,0,0,1,11.954,11.955Z" transform="translate(0)" fill="#9f9f9f"/>
  </g>
</svg>
