<svg xmlns="http://www.w3.org/2000/svg" width="25" height="25" viewBox="0 0 25 25">
  <path id="stat" d="M12.5,0A12.5,12.5,0,1,0,25,12.5,12.493,12.493,0,0,0,12.5,0Zm0,23.047A10.547,10.547,0,1,1,23.047,12.5,10.541,10.541,0,0,1,12.5,23.047ZM21.289,9.9v3.711a.977.977,0,0,1-1.953,0V12.254l-3.541,3.541a.977.977,0,0,1-1.381,0L9.9,11.277,5.378,15.795A.977.977,0,1,1,4,14.414L9.205,9.205a.977.977,0,0,1,1.381,0L15.1,13.723l2.851-2.851H16.6a.977.977,0,0,1,0-1.953h3.711a.979.979,0,0,1,.977.977Zm0,0" fill="#ea2027"/>
</svg>
